<svg width="284" height="116" viewBox="0 0 284 116" fill="none" xmlns="http://www.w3.org/2000/svg">
<path d="M171.992 49.152C171.992 51.5413 171.416 53.7813 170.264 55.872C169.155 57.9627 167.384 59.648 164.952 60.928C162.563 62.208 159.533 62.848 155.864 62.848H148.376V80H139.416V35.328H155.864C159.32 35.328 162.264 35.9253 164.696 37.12C167.128 38.3147 168.941 39.9573 170.136 42.048C171.373 44.1387 171.992 46.5067 171.992 49.152ZM155.48 55.616C157.955 55.616 159.789 55.0613 160.984 53.952C162.179 52.8 162.776 51.2 162.776 49.152C162.776 44.8 160.344 42.624 155.48 42.624H148.376V55.616H155.48ZM182.898 40.32C181.319 40.32 179.996 39.8293 178.93 38.848C177.906 37.824 177.394 36.5653 177.394 35.072C177.394 33.5787 177.906 32.3413 178.93 31.36C179.996 30.336 181.319 29.824 182.898 29.824C184.476 29.824 185.778 30.336 186.802 31.36C187.868 32.3413 188.402 33.5787 188.402 35.072C188.402 36.5653 187.868 37.824 186.802 38.848C185.778 39.8293 184.476 40.32 182.898 40.32ZM187.314 44.544V80H178.354V44.544H187.314ZM215.75 80L208.454 68.992L201.99 80H192.39L203.974 62.208L192.262 44.544H202.374L209.606 55.488L216.134 44.544H225.734L214.086 62.208L225.862 80H215.75ZM235.273 40.32C233.694 40.32 232.371 39.8293 231.305 38.848C230.281 37.824 229.769 36.5653 229.769 35.072C229.769 33.5787 230.281 32.3413 231.305 31.36C232.371 30.336 233.694 29.824 235.273 29.824C236.851 29.824 238.153 30.336 239.177 31.36C240.243 32.3413 240.777 33.5787 240.777 35.072C240.777 36.5653 240.243 37.824 239.177 38.848C238.153 39.8293 236.851 40.32 235.273 40.32ZM239.689 44.544V80H230.729V44.544H239.689ZM281.501 61.504C281.501 62.784 281.416 63.936 281.245 64.96H255.325C255.538 67.52 256.434 69.5253 258.013 70.976C259.592 72.4267 261.533 73.152 263.837 73.152C267.165 73.152 269.533 71.7227 270.941 68.864H280.605C279.581 72.2773 277.618 75.0933 274.717 77.312C271.816 79.488 268.253 80.576 264.029 80.576C260.616 80.576 257.544 79.8293 254.813 78.336C252.125 76.8 250.013 74.6453 248.477 71.872C246.984 69.0987 246.237 65.8987 246.237 62.272C246.237 58.6027 246.984 55.3813 248.477 52.608C249.97 49.8347 252.061 47.7013 254.749 46.208C257.437 44.7147 260.53 43.968 264.029 43.968C267.4 43.968 270.408 44.6933 273.053 46.144C275.741 47.5947 277.81 49.664 279.261 52.352C280.754 54.9973 281.501 58.048 281.501 61.504ZM272.221 58.944C272.178 56.64 271.346 54.8053 269.725 53.44C268.104 52.032 266.12 51.328 263.773 51.328C261.554 51.328 259.677 52.0107 258.141 53.376C256.648 54.6987 255.73 56.5547 255.389 58.944H272.221Z" fill="#1C1C1C"/>
<circle cx="75" cy="15" r="15" fill="#FF4158"/>
<circle cx="22.5" cy="30.5" r="22.5" fill="#41C6FF"/>
<circle cx="75" cy="81" r="35" fill="#FFCA41"/>
</svg>
